# xmcd CD database file
#
# Track frame offsets:
#	150
#	92517
#	132227
#	170384
#	244798
#
# Disc length: 4220 seconds
#
# Revision: 0
# Processed by: cddbd v1.5.2PL0 Copyright (c) Steve Scherf et al.
# Submitted via: CDex 1.70beta2
#
DISCID=36107a05
DTITLE=Hauke Nissen - Lied der Stille
DYEAR=1996
DGENRE=New Age
TTITLE0=Meeresleuchten
TTITLE1=Morgenglanz
TTITLE2=Morgenglanz 2
TTITLE3=Lied der Stille
TTITLE4=Abendwolken
EXTD=YEAR: 1996
EXTT0=
EXTT1=
EXTT2=
EXTT3=
EXTT4=
PLAYORDER=
